<mxfile host="app.diagrams.net" modified="2021-05-05T15:40:59.297Z" agent="5.0 (Windows)" etag="pNF0H2CQHg6sTnJyXADY" version="14.6.10" type="github">
  <diagram id="YViYlU2Cfpw91xuOrRHd" name="Page-1">
    <mxGraphModel dx="976" dy="587" grid="1" gridSize="10" guides="1" tooltips="1" connect="1" arrows="1" fold="1" page="1" pageScale="1" pageWidth="850" pageHeight="1100" math="0" shadow="0">
      <root>
        <mxCell id="0" />
        <mxCell id="1" parent="0" />
        <mxCell id="0DNDzNzhYgWVqlKoG2N6-1" value="customer" style="swimlane;childLayout=stackLayout;horizontal=1;startSize=30;horizontalStack=0;rounded=1;fontSize=14;fontStyle=0;strokeWidth=2;resizeParent=0;resizeLast=1;shadow=0;dashed=0;align=center;" vertex="1" parent="1">
          <mxGeometry x="120" y="100" width="160" height="120" as="geometry" />
        </mxCell>
        <mxCell id="0DNDzNzhYgWVqlKoG2N6-2" value="name&#xa;email&#xa;phone&#xa;" style="align=left;strokeColor=none;fillColor=none;spacingLeft=4;fontSize=12;verticalAlign=top;resizable=0;rotatable=0;part=1;" vertex="1" parent="0DNDzNzhYgWVqlKoG2N6-1">
          <mxGeometry y="30" width="160" height="90" as="geometry" />
        </mxCell>
        <mxCell id="0DNDzNzhYgWVqlKoG2N6-3" value="movie" style="swimlane;childLayout=stackLayout;horizontal=1;startSize=30;horizontalStack=0;rounded=1;fontSize=14;fontStyle=0;strokeWidth=2;resizeParent=0;resizeLast=1;shadow=0;dashed=0;align=center;" vertex="1" parent="1">
          <mxGeometry x="490" y="100" width="160" height="120" as="geometry" />
        </mxCell>
        <mxCell id="0DNDzNzhYgWVqlKoG2N6-4" value="barcode&#xa;dailyRentalRate&#xa;numberInStock&#xa;&#xa;" style="align=left;strokeColor=none;fillColor=none;spacingLeft=4;fontSize=12;verticalAlign=top;resizable=0;rotatable=0;part=1;" vertex="1" parent="0DNDzNzhYgWVqlKoG2N6-3">
          <mxGeometry y="30" width="160" height="90" as="geometry" />
        </mxCell>
      </root>
    </mxGraphModel>
  </diagram>
</mxfile>
